<svg id="visual" viewBox="0 0 900 900" width="900" height="900" xmlns="http://www.w3.org/2000/svg" xmlns:xlink="http://www.w3.org/1999/xlink" version="1.1"><rect x="0" y="0" width="900" height="900" fill="#111111"></rect><g transform="translate(500.41094634310514 479.21107656730464)"><path d="M90.9 -153.8C172 -110.5 329.6 -195.9 343.8 -191.7C358.1 -187.5 229 -93.8 176.6 -30.3C124.1 33.2 148.2 66.3 163.4 121.5C178.6 176.6 184.8 253.7 156.1 257.3C127.3 260.9 63.7 190.9 -8.7 206C-81 221 -162 320.9 -169.1 304.8C-176.1 288.8 -109.3 156.6 -143.8 86.5C-178.3 16.3 -314.1 8.2 -386.7 -41.9C-459.3 -92 -468.7 -184 -393.7 -184C-318.7 -184 -159.4 -92 -79.7 -136.2C0 -180.3 0 -360.7 2.4 -364.9C4.8 -369 9.7 -197.1 90.9 -153.8" fill="#9F1AE1"></path></g></svg>